<svg width="928" height="211" viewBox="0 0 928 211" fill="none" xmlns="http://www.w3.org/2000/svg">
<path d="M0.100001 8.99999H44.95V207H0.100001V8.99999ZM79.0023 207V0.599993H124.602V101.85C125.502 99.05 127.802 96 131.502 92.7C135.302 89.3 140.252 86.4 146.352 84C152.552 81.5 159.552 80.25 167.352 80.25C179.352 80.25 189.752 83.2 198.552 89.1C207.352 95 214.152 102.9 218.952 112.8C223.752 122.6 226.152 133.5 226.152 145.5C226.152 157.5 223.752 168.45 218.952 178.35C214.152 188.15 207.352 196 198.552 201.9C189.752 207.7 179.352 210.6 167.352 210.6C160.752 210.6 154.502 209.4 148.602 207C142.802 204.7 137.752 201.75 133.452 198.15C129.252 194.45 126.152 190.75 124.152 187.05V207H79.0023ZM181.452 145.5C181.452 139.9 180.202 134.9 177.702 130.5C175.302 126 171.952 122.5 167.652 120C163.452 117.4 158.702 116.1 153.402 116.1C147.902 116.1 142.952 117.4 138.552 120C134.252 122.5 130.852 126 128.352 130.5C125.852 134.9 124.602 139.9 124.602 145.5C124.602 151.1 125.852 156.15 128.352 160.65C130.852 165.05 134.252 168.5 138.552 171C142.952 173.5 147.902 174.75 153.402 174.75C158.702 174.75 163.452 173.5 167.652 171C171.952 168.5 175.302 165.05 177.702 160.65C180.202 156.15 181.452 151.1 181.452 145.5ZM290.53 140.85C290.53 150.65 292.38 158.5 296.08 164.4C299.78 170.2 305.98 173.1 314.68 173.1C323.58 173.1 329.83 170.2 333.43 164.4C337.13 158.5 338.98 150.65 338.98 140.85V83.85H383.98V145.65C383.98 158.85 381.23 170.35 375.73 180.15C370.33 189.85 362.48 197.35 352.18 202.65C341.88 207.95 329.38 210.6 314.68 210.6C300.08 210.6 287.63 207.95 277.33 202.65C267.03 197.35 259.18 189.85 253.78 180.15C248.38 170.35 245.68 158.85 245.68 145.65V83.85H290.53V140.85Z" fill="#1C1D21"/>
<path d="M466.886 80.25C474.986 80.25 482.386 80.95 489.086 82.35C495.786 83.65 501.386 85.15 505.886 86.85C510.486 88.55 513.436 89.95 514.736 91.05L499.886 117.9C497.986 116.5 494.436 114.7 489.236 112.5C484.136 110.3 478.436 109.2 472.136 109.2C467.336 109.2 463.286 109.95 459.986 111.45C456.686 112.85 455.036 115.1 455.036 118.2C455.036 121.3 456.836 123.8 460.436 125.7C464.136 127.5 469.436 129.1 476.336 130.5C482.336 131.7 488.436 133.6 494.636 136.2C500.836 138.8 505.986 142.65 510.086 147.75C514.286 152.75 516.386 159.45 516.386 167.85C516.386 176.45 514.536 183.55 510.836 189.15C507.136 194.75 502.236 199.1 496.136 202.2C490.036 205.3 483.436 207.45 476.336 208.65C469.236 209.95 462.336 210.6 455.636 210.6C446.236 210.6 438.036 209.75 431.036 208.05C424.136 206.35 418.536 204.4 414.236 202.2C409.936 200 406.936 198.25 405.236 196.95L419.936 166.95C422.536 169.15 426.786 171.65 432.686 174.45C438.586 177.15 444.836 178.5 451.436 178.5C457.836 178.5 462.786 177.55 466.286 175.65C469.786 173.75 471.536 171.25 471.536 168.15C471.536 165.65 470.686 163.65 468.986 162.15C467.286 160.65 464.886 159.35 461.786 158.25C458.686 157.15 454.936 156.15 450.536 155.25C446.536 154.45 442.286 153.2 437.786 151.5C433.286 149.8 429.036 147.5 425.036 144.6C421.036 141.6 417.786 137.85 415.286 133.35C412.786 128.85 411.536 123.4 411.536 117C411.536 108.8 414.186 102 419.486 96.6C424.786 91.2 431.636 87.15 440.036 84.45C448.436 81.65 457.386 80.25 466.886 80.25ZM583.792 140.85C583.792 150.65 585.642 158.5 589.342 164.4C593.042 170.2 599.242 173.1 607.942 173.1C616.842 173.1 623.092 170.2 626.692 164.4C630.392 158.5 632.242 150.65 632.242 140.85V83.85H677.242V145.65C677.242 158.85 674.492 170.35 668.992 180.15C663.592 189.85 655.742 197.35 645.442 202.65C635.142 207.95 622.642 210.6 607.942 210.6C593.342 210.6 580.892 207.95 570.592 202.65C560.292 197.35 552.442 189.85 547.042 180.15C541.642 170.35 538.942 158.85 538.942 145.65V83.85H583.792V140.85ZM789.698 80.25C798.298 80.25 806.698 82 814.898 85.5C823.098 89 829.848 94.55 835.148 102.15C840.448 109.65 843.098 119.55 843.098 131.85V207H797.348V139.35C797.348 130.55 795.248 123.95 791.048 119.55C786.848 115.05 781.348 112.8 774.548 112.8C770.048 112.8 765.798 114 761.798 116.4C757.898 118.7 754.698 122 752.198 126.3C749.798 130.5 748.598 135.35 748.598 140.85V207H702.998V83.85H748.598V102C749.798 98.7 752.298 95.4 756.098 92.1C759.998 88.7 764.848 85.9 770.648 83.7C776.548 81.4 782.898 80.25 789.698 80.25ZM900.196 210.6C892.796 210.6 886.396 207.95 880.996 202.65C875.696 197.25 873.046 190.85 873.046 183.45C873.046 175.85 875.696 169.4 880.996 164.1C886.396 158.7 892.796 156 900.196 156C907.796 156 914.246 158.7 919.546 164.1C924.846 169.4 927.496 175.85 927.496 183.45C927.496 190.85 924.846 197.25 919.546 202.65C914.246 207.95 907.796 210.6 900.196 210.6Z" fill="#D1AC00"/>
</svg>
