<svg width="699" height="360" viewBox="0 0 699 360" fill="none" xmlns="http://www.w3.org/2000/svg">
<path d="M12 290V69.5H44.4V290H12Z" fill="#1C1D21"/>
<path d="M362.3 292.4C357.3 292.4 353.1 290.8 349.7 287.6C346.3 284.4 343.75 280.35 342.05 275.45C340.35 270.45 339.5 265.4 339.5 260.3V125.9H369.8V254.3C369.8 257.4 370.35 259.65 371.45 261.05C372.65 262.35 374.5 263 377 263C379.2 263 381.05 262.25 382.55 260.75C384.15 259.15 385.6 257.3 386.9 255.2V125.9H417.2V290H386.9V276.2C383.3 279.6 379.25 283.15 374.75 286.85C370.25 290.55 366.1 292.4 362.3 292.4ZM470.206 292.4C463.106 292.4 456.906 291.2 451.606 288.8C446.306 286.4 441.906 283 438.406 278.6C434.906 274.1 432.256 268.8 430.456 262.7C428.756 256.6 427.906 249.8 427.906 242.3H456.106C456.106 249 457.156 254.85 459.256 259.85C461.456 264.75 465.106 267.2 470.206 267.2C474.606 267.2 477.456 265.35 478.756 261.65C480.056 257.95 480.706 253.7 480.706 248.9C480.706 243.3 478.506 237.6 474.106 231.8C469.806 225.9 465.306 220.65 460.606 216.05C452.506 208.05 445.756 200.15 440.356 192.35C435.056 184.55 432.406 175.4 432.406 164.9C432.406 152.5 435.656 142.5 442.156 134.9C448.656 127.3 457.906 123.5 469.906 123.5C477.106 123.5 483.156 124.45 488.056 126.35C493.056 128.25 497.056 131.1 500.056 134.9C503.056 138.7 505.206 143.35 506.506 148.85C507.906 154.35 508.606 160.7 508.606 167.9H480.406C480.406 162.7 479.856 158.2 478.756 154.4C477.656 150.6 474.906 148.7 470.506 148.7C466.906 148.7 464.356 150.25 462.856 153.35C461.356 156.35 460.606 160.2 460.606 164.9C460.606 170.4 461.906 175.3 464.506 179.6C467.206 183.8 471.656 188.95 477.856 195.05C485.656 202.65 492.756 210.75 499.156 219.35C505.656 227.95 508.906 237.3 508.906 247.4C508.906 254 508.006 260.05 506.206 265.55C504.506 271.05 501.956 275.8 498.556 279.8C495.256 283.8 491.206 286.9 486.406 289.1C481.706 291.3 476.306 292.4 470.206 292.4ZM543.648 292.4C538.648 292.4 534.448 290.8 531.048 287.6C527.648 284.4 525.098 280.35 523.398 275.45C521.698 270.45 520.848 265.4 520.848 260.3V125.9H551.148V254.3C551.148 257.4 551.698 259.65 552.798 261.05C553.998 262.35 555.848 263 558.348 263C560.548 263 562.398 262.25 563.898 260.75C565.498 259.15 566.948 257.3 568.248 255.2V125.9H598.548V290H568.248V276.2C564.648 279.6 560.598 283.15 556.098 286.85C551.598 290.55 547.448 292.4 543.648 292.4ZM613.426 290V125.9H643.726V139.7C647.326 136.2 651.376 132.65 655.876 129.05C660.376 125.35 664.526 123.5 668.326 123.5C673.326 123.5 677.526 125.1 680.926 128.3C684.326 131.5 686.876 135.55 688.576 140.45C690.276 145.35 691.126 150.4 691.126 155.6V290H660.826V161.6C660.826 158.4 660.276 156.15 659.176 154.85C658.076 153.55 656.226 152.9 653.626 152.9C651.426 152.9 649.526 153.7 647.926 155.3C646.426 156.8 645.026 158.6 643.726 160.7V290H613.426Z" fill="#1C1D21"/>
<rect x="73" y="66" width="35" height="224" fill="#D1AC00"/>
<path d="M278.463 182.06C278.463 172.395 286.298 164.56 295.963 164.56V164.56C305.628 164.56 313.463 172.395 313.463 182.06V290H278.463V182.06Z" fill="#D1AC00"/>
<rect x="74" y="183.584" width="35" height="240" rx="17.5" transform="rotate(-90 74 183.584)" fill="#D1AC00"/>
<rect x="74" y="256.16" width="35" height="240" rx="17.5" transform="rotate(-90 74 256.16)" fill="#D1AC00"/>
</svg>
